<svg width="16" height="16" xmlns="http://www.w3.org/2000/svg">

 <g>
  <title>background</title>
  <rect fill="none" id="canvas_background" height="18" width="18" y="-1" x="-1"/>
 </g>
 <g>
  <title>Layer 1</title>
  <g stroke="null" id="svg_1">
   <path stroke="null" id="svg_2" d="m11.49609,0.07374c-0.4863,0 -0.8807,0.39428 -0.8807,0.8807l0,0.96076l-5.2308,0l0,-0.96076c0,-0.48641 -0.39428,-0.8807 -0.8807,-0.8807c-0.4863,0 -0.8807,0.39428 -0.8807,0.8807l0,14.09112c0,0.48641 0.39439,0.8807 0.8807,0.8807c0.48641,0 0.8807,-0.39428 0.8807,-0.8807l0,-0.85401l5.2308,0l0,0.85401c0,0.48641 0.39439,0.8807 0.8807,0.8807c0.48641,0 0.8807,-0.39428 0.8807,-0.8807l0,-14.09112c0,-0.48641 -0.39428,-0.8807 -0.8807,-0.8807zm-6.11149,7.12562l5.2308,0l0,1.70801l-5.2308,0l0,-1.70801zm5.2308,-3.52278l0,1.76139l-5.2308,0l0,-1.76139l5.2308,0zm-5.2308,8.75358l0,-1.76139l5.2308,0l0,1.76139l-5.2308,0z"/>
  </g>
 </g>
</svg>