<svg width="16" height="16" xmlns="http://www.w3.org/2000/svg">

 <g>
  <title>background</title>
  <rect fill="none" id="canvas_background" height="18" width="18" y="-1" x="-1"/>
 </g>
 <g>
  <title>Layer 1</title>
  <g stroke="null" id="svg_1">
   <g stroke="null" id="svg_2">
    <path stroke="null" id="svg_3" d="m10.25526,4.20798c-0.61917,-0.51009 -1.28646,-0.84695 -1.4212,-0.91111c-0.01604,-0.00642 -0.02567,-0.02246 -0.02567,-0.0385l0,-0.41385c0.06095,-0.12833 0.09945,-0.26307 0.1187,-0.38818c0.01283,0.00962 0.02567,0.01283 0.04171,0.01283c0.05454,0 0.12833,-0.07379 0.20853,-0.35289c0.08341,-0.29194 0.03208,-0.38818 -0.0385,-0.41385c0.23099,-1.10681 -0.29515,-1.1421 -0.29515,-1.1421s-0.0802,-0.15399 -0.28873,-0.26948c-0.12191,-0.07058 -0.28552,-0.13153 -0.49405,-0.13153c-0.03208,0 -0.06737,0 -0.10266,0.00321c-0.08341,0.00321 -0.16361,0.01925 -0.2374,0.04491l0,0c-0.09624,0.03208 -0.18286,0.0802 -0.25986,0.13474c-0.09624,0.06095 -0.18607,0.13474 -0.26948,0.22136c-0.12833,0.13153 -0.24061,0.29836 -0.28873,0.50689c-0.04812,0.17966 -0.04491,0.37214 0.02567,0.56784c-0.00642,0 -0.01283,0 -0.01925,0c-0.08983,0 -0.18286,0.07058 -0.08341,0.42027c0.077,0.27269 0.14757,0.34969 0.20211,0.35289c0.02567,0.1572 0.07379,0.33044 0.16682,0.48764l0,0.3561c0,0.01604 -0.00962,0.03208 -0.02567,0.0385c-0.13474,0.06416 -0.80203,0.40422 -1.4212,0.91111c-0.11228,0.09304 -0.17645,0.23099 -0.17645,0.37535l0,0.68333l0,2.56009c0,0.37856 0.13153,0.7475 0.37535,1.04264l0.51651,0.60634l0.46839,5.996c0.01604,0.20853 0.19249,0.37214 0.40102,0.37214l1.33779,0c0.21174,0 0.38498,-0.16361 0.40102,-0.37214l0.46518,-5.996l0.51009,-0.60634c0.24703,-0.29515 0.38177,-0.66729 0.38177,-1.05227l0,-2.55047l0,-0.68333c0.00321,-0.14116 -0.06095,-0.27911 -0.17324,-0.37214z"/>
   </g>
  </g>
  <g id="svg_4"/>
  <g id="svg_5"/>
  <g id="svg_6"/>
  <g id="svg_7"/>
  <g id="svg_8"/>
  <g id="svg_9"/>
  <g id="svg_10"/>
  <g id="svg_11"/>
  <g id="svg_12"/>
  <g id="svg_13"/>
  <g id="svg_14"/>
  <g id="svg_15"/>
  <g id="svg_16"/>
  <g id="svg_17"/>
  <g id="svg_18"/>
 </g>
</svg>